<?xml version="1.0" encoding="UTF-8"?>
<svg xmlns="http://www.w3.org/2000/svg" xmlns:xlink="http://www.w3.org/1999/xlink" width="999pt" height="755pt" viewBox="0 0 999 755" version="1.1">
<g id="surface1">
<path style=" stroke:none;fill-rule:nonzero;fill:rgb(42.352941%,38.823529%,100%);fill-opacity:1;" d="M 855.78125 408.75 C 855.78125 524.808594 787.804688 627.480469 683.597656 689.984375 C 616.78125 730.0625 535.066406 753.628906 446.835938 753.628906 C 329.292969 753.628906 239.628906 709.164062 172.183594 641.050781 C 110.015625 578.28125 66.726562 495.417969 37.886719 408.75 C -90.875 21.8125 124.222656 -83.75 446.835938 63.875 C 652.242188 157.878906 855.78125 218.285156 855.78125 408.75 Z M 855.78125 408.75 "/>
<path style=" stroke:none;fill-rule:nonzero;fill:rgb(94.901961%,94.901961%,94.901961%);fill-opacity:1;" d="M 683.597656 206.1875 L 683.597656 690.898438 C 616.78125 730.980469 535.066406 754.546875 446.835938 754.546875 C 329.292969 754.546875 239.628906 710.082031 172.183594 641.96875 L 172.183594 206.1875 Z M 683.597656 206.1875 "/>
<path style=" stroke:none;fill-rule:nonzero;fill:rgb(24.705882%,23.921569%,33.72549%);fill-opacity:1;" d="M 221.371094 442.367188 C 248.148438 433.839844 275.929688 428.882812 304 427.621094 C 318.066406 427.023438 332.15625 427.574219 346.132812 429.269531 C 359.976562 431.101562 373.648438 434.035156 387.023438 438.035156 C 400.242188 441.863281 413.277344 446.289062 426.449219 450.265625 C 439.828125 454.355469 453.433594 457.679688 467.191406 460.21875 C 480.878906 462.695312 494.703125 464.347656 508.589844 465.15625 C 522.339844 465.957031 536.226562 466.113281 549.9375 464.644531 C 562.746094 463.410156 575.292969 460.230469 587.140625 455.207031 C 598.191406 450.378906 608.402344 443.824219 617.394531 435.78125 C 619.636719 433.777344 621.796875 431.683594 623.871094 429.503906 C 625.09375 428.222656 623.152344 426.273438 621.925781 427.558594 C 604.398438 445.898438 581.359375 457.269531 556.371094 461.066406 C 542.757812 463.136719 528.886719 463.253906 515.152344 462.722656 C 501.113281 462.179688 487.117188 460.765625 473.253906 458.484375 C 459.558594 456.210938 446.007812 453.125 432.675781 449.238281 C 419.582031 445.441406 406.664062 441.0625 393.613281 437.117188 C 380.449219 432.980469 367.011719 429.773438 353.398438 427.527344 C 339.746094 425.445312 325.949219 424.484375 312.140625 424.660156 C 284.546875 425.101562 257.128906 429.164062 230.59375 436.746094 C 227.261719 437.683594 223.945312 438.671875 220.640625 439.710938 C 218.957031 440.242188 219.675781 442.898438 221.371094 442.367188 Z M 221.371094 442.367188 "/>
<path style=" stroke:none;fill-rule:nonzero;fill:rgb(24.705882%,23.921569%,33.72549%);fill-opacity:1;" d="M 221.371094 512.085938 C 248.148438 503.5625 275.929688 498.605469 304 497.339844 C 318.066406 496.742188 332.15625 497.292969 346.132812 498.992188 C 359.976562 500.824219 373.648438 503.753906 387.023438 507.753906 C 400.242188 511.585938 413.277344 516.007812 426.449219 519.984375 C 439.828125 524.078125 453.433594 527.398438 467.191406 529.9375 C 480.878906 532.417969 494.703125 534.066406 508.589844 534.875 C 522.339844 535.675781 536.226562 535.832031 549.9375 534.367188 C 562.746094 533.132812 575.292969 529.949219 587.140625 524.925781 C 598.191406 520.101562 608.402344 513.542969 617.394531 505.503906 C 619.636719 503.5 621.796875 501.40625 623.871094 499.222656 C 625.09375 497.945312 623.152344 495.996094 621.925781 497.277344 C 604.398438 515.617188 581.359375 526.988281 556.371094 530.789062 C 542.757812 532.855469 528.886719 532.976562 515.152344 532.441406 C 501.113281 531.898438 487.117188 530.484375 473.253906 528.207031 C 459.558594 525.933594 446.007812 522.84375 432.675781 518.960938 C 419.582031 515.164062 406.664062 510.785156 393.613281 506.835938 C 380.449219 502.699219 367.011719 499.496094 353.398438 497.246094 C 339.746094 495.164062 325.949219 494.207031 312.140625 494.378906 C 284.546875 494.820312 257.128906 498.886719 230.59375 506.46875 C 227.261719 507.402344 223.945312 508.394531 220.640625 509.433594 C 218.957031 509.960938 219.675781 512.617188 221.371094 512.085938 Z M 221.371094 512.085938 "/>
<path style=" stroke:none;fill-rule:nonzero;fill:rgb(24.705882%,23.921569%,33.72549%);fill-opacity:1;" d="M 221.371094 379.066406 C 248.148438 370.542969 275.929688 365.585938 304 364.320312 C 318.066406 363.722656 332.15625 364.273438 346.132812 365.972656 C 359.976562 367.804688 373.648438 370.734375 387.023438 374.734375 C 400.242188 378.566406 413.277344 382.988281 426.449219 386.964844 C 439.828125 391.058594 453.433594 394.378906 467.191406 396.917969 C 480.878906 399.398438 494.703125 401.046875 508.589844 401.855469 C 522.339844 402.65625 536.226562 402.8125 549.9375 401.347656 C 562.746094 400.113281 575.292969 396.929688 587.140625 391.90625 C 598.191406 387.082031 608.402344 380.523438 617.394531 372.484375 C 619.636719 370.480469 621.796875 368.386719 623.871094 366.203125 C 625.09375 364.925781 623.152344 362.976562 621.925781 364.257812 C 604.398438 382.597656 581.359375 393.96875 556.371094 397.769531 C 542.757812 399.835938 528.886719 399.957031 515.152344 399.421875 C 501.113281 398.882812 487.117188 397.464844 473.253906 395.1875 C 459.558594 392.914062 446.007812 389.824219 432.675781 385.941406 C 419.582031 382.144531 406.664062 377.765625 393.613281 373.816406 C 380.449219 369.679688 367.011719 366.476562 353.398438 364.226562 C 339.746094 362.144531 325.949219 361.1875 312.140625 361.359375 C 284.546875 361.800781 257.128906 365.867188 230.59375 373.449219 C 227.261719 374.382812 223.945312 375.375 220.640625 376.414062 C 218.957031 376.941406 219.675781 379.597656 221.371094 379.066406 Z M 221.371094 379.066406 "/>
<path style=" stroke:none;fill-rule:nonzero;fill:rgb(24.705882%,23.921569%,33.72549%);fill-opacity:1;" d="M 218.097656 259.386719 C 224.75 256.4375 232.371094 256.953125 239.273438 258.664062 C 246.71875 260.507812 253.726562 263.714844 261.054688 265.933594 C 274.171875 269.84375 288.105469 270.109375 301.363281 266.695312 C 308.824219 264.792969 315.945312 261.738281 322.472656 257.640625 C 323.964844 256.699219 322.585938 254.316406 321.082031 255.265625 C 309.453125 262.535156 296.007812 266.371094 282.296875 266.332031 C 275.421875 266.320312 268.582031 265.3125 261.992188 263.339844 C 254.71875 261.15625 247.765625 257.988281 240.394531 256.105469 C 232.585938 254.113281 224.214844 253.683594 216.707031 257.011719 C 215.09375 257.726562 216.492188 260.097656 218.097656 259.386719 Z M 218.097656 259.386719 "/>
<path style=" stroke:none;fill-rule:nonzero;fill:rgb(24.705882%,23.921569%,33.72549%);fill-opacity:1;" d="M 464.550781 639.1875 C 464.550781 662.492188 445.675781 681.386719 422.390625 681.386719 C 399.105469 681.386719 380.230469 662.492188 380.230469 639.1875 C 380.230469 615.882812 399.105469 596.988281 422.390625 596.988281 C 445.675781 596.988281 464.550781 615.882812 464.550781 639.1875 Z M 464.550781 639.1875 "/>
<path style=" stroke:none;fill-rule:nonzero;fill:rgb(94.901961%,94.901961%,94.901961%);fill-opacity:1;" d="M 218.007812 97.019531 C 218.007812 109.683594 207.75 119.953125 195.09375 119.953125 C 182.441406 119.953125 172.183594 109.683594 172.183594 97.019531 C 172.183594 84.351562 182.441406 74.085938 195.09375 74.085938 C 207.75 74.085938 218.007812 84.351562 218.007812 97.019531 Z M 218.007812 97.019531 "/>
<path style=" stroke:none;fill-rule:nonzero;fill:rgb(94.901961%,94.901961%,94.901961%);fill-opacity:1;" d="M 411.390625 162.152344 C 411.390625 170.765625 404.417969 177.746094 395.8125 177.746094 C 387.207031 177.746094 380.230469 170.765625 380.230469 162.152344 C 380.230469 153.539062 387.207031 146.558594 395.8125 146.558594 C 404.417969 146.558594 411.390625 153.539062 411.390625 162.152344 Z M 411.390625 162.152344 "/>
<path style=" stroke:none;fill-rule:nonzero;fill:rgb(94.901961%,94.901961%,94.901961%);fill-opacity:1;" d="M 158.433594 311.683594 C 158.433594 320.296875 151.457031 327.28125 142.855469 327.28125 C 134.25 327.28125 127.273438 320.296875 127.273438 311.683594 C 127.273438 303.070312 134.25 296.089844 142.855469 296.089844 C 151.457031 296.089844 158.433594 303.070312 158.433594 311.683594 Z M 158.433594 311.683594 "/>
<path style=" stroke:none;fill-rule:nonzero;fill:rgb(24.705882%,23.921569%,33.72549%);fill-opacity:1;" d="M 78.40625 195.828125 L 80.125 195.828125 L 80.125 503.371094 L 78.40625 503.371094 Z M 78.40625 195.828125 "/>
<path style=" stroke:none;fill-rule:nonzero;fill:rgb(24.705882%,23.921569%,33.72549%);fill-opacity:1;" d="M 113.101562 400.484375 C 113.101562 358.21875 98.101562 323.953125 79.59375 323.953125 C 61.089844 323.953125 46.089844 358.21875 46.089844 400.484375 C 46.089844 442.75 61.089844 477.015625 79.59375 477.015625 C 98.101562 477.015625 113.101562 442.75 113.101562 400.484375 Z M 113.101562 400.484375 "/>
<path style=" stroke:none;fill-rule:nonzero;fill:rgb(24.705882%,23.921569%,33.72549%);fill-opacity:1;" d="M 113.101562 225.921875 C 113.101562 183.65625 98.101562 149.390625 79.59375 149.390625 C 61.089844 149.390625 46.089844 183.65625 46.089844 225.921875 C 46.089844 268.191406 61.089844 302.453125 79.59375 302.453125 C 98.101562 302.453125 113.101562 268.191406 113.101562 225.921875 Z M 113.101562 225.921875 "/>
<path style=" stroke:none;fill-rule:nonzero;fill:rgb(24.705882%,23.921569%,33.72549%);fill-opacity:1;" d="M 80.417969 163.398438 L 78.773438 162.902344 C 78.875 162.554688 88.976562 127.910156 72.390625 105.605469 C 63.023438 93.007812 46.949219 86.617188 24.613281 86.617188 L 24.613281 84.898438 C 47.523438 84.898438 64.066406 91.523438 73.773438 104.582031 C 90.875 127.585938 80.523438 163.042969 80.417969 163.398438 Z M 80.417969 163.398438 "/>
<path style=" stroke:none;fill-rule:nonzero;fill:rgb(24.705882%,23.921569%,33.72549%);fill-opacity:1;" d="M 46.089844 85.757812 C 46.089844 97.632812 36.476562 107.257812 24.613281 107.257812 C 12.75 107.257812 3.136719 97.632812 3.136719 85.757812 C 3.136719 73.886719 12.75 64.261719 24.613281 64.261719 C 36.476562 64.261719 46.089844 73.886719 46.089844 85.757812 Z M 46.089844 85.757812 "/>
<path style=" stroke:none;fill-rule:nonzero;fill:rgb(18.431373%,18.039216%,25.490196%);fill-opacity:1;" d="M 706.394531 573.0625 L 690.324219 721.035156 L 801.199219 721.035156 L 806.019531 709.777344 L 812.449219 721.035156 L 916.894531 721.035156 C 916.894531 721.035156 908.859375 568.238281 894.398438 563.414062 C 879.9375 558.589844 706.394531 573.0625 706.394531 573.0625 Z M 706.394531 573.0625 "/>
<path style=" stroke:none;fill-rule:nonzero;fill:rgb(100%,72.156863%,72.156863%);fill-opacity:1;" d="M 857.441406 191.875 C 857.441406 222.964844 832.261719 248.167969 801.199219 248.167969 C 770.136719 248.167969 744.957031 222.964844 744.957031 191.875 C 744.957031 160.785156 770.136719 135.582031 801.199219 135.582031 C 832.261719 135.582031 857.441406 160.785156 857.441406 191.875 Z M 857.441406 191.875 "/>
<path style=" stroke:none;fill-rule:nonzero;fill:rgb(100%,72.156863%,72.156863%);fill-opacity:1;" d="M 769.0625 227.261719 C 769.0625 227.261719 773.882812 278.726562 769.0625 281.945312 C 764.242188 285.160156 846.191406 283.554688 846.191406 283.554688 C 846.191406 283.554688 834.945312 236.910156 846.191406 214.394531 Z M 769.0625 227.261719 "/>
<path style=" stroke:none;fill-rule:nonzero;fill:rgb(81.568627%,80.392157%,88.235294%);fill-opacity:1;" d="M 797.984375 270.6875 C 797.984375 270.6875 839.332031 277.132812 842.761719 264.257812 L 863.867188 293.203125 L 865.476562 582.714844 C 865.476562 582.714844 693.539062 603.621094 687.109375 569.847656 C 680.683594 536.070312 752.992188 269.078125 752.992188 269.078125 L 771.195312 267.898438 C 771.195312 267.898438 794.773438 270.6875 797.984375 270.6875 Z M 797.984375 270.6875 "/>
<path style=" stroke:none;fill-rule:nonzero;fill:rgb(24.705882%,23.921569%,33.72549%);fill-opacity:1;" d="M 770.921875 254.691406 L 743.351562 264.253906 L 664.613281 283.554688 L 667.828125 476.558594 C 667.828125 476.558594 600.339844 669.566406 630.871094 684.042969 C 661.402344 698.519531 704.785156 664.742188 717.640625 640.617188 C 730.496094 616.488281 775.488281 281.945312 775.488281 275.511719 C 775.488281 269.078125 770.921875 254.691406 770.921875 254.691406 Z M 770.921875 254.691406 "/>
<path style=" stroke:none;fill-rule:nonzero;fill:rgb(24.705882%,23.921569%,33.72549%);fill-opacity:1;" d="M 841.730469 254.691406 L 852.621094 264.253906 L 929.75 299.636719 L 891.183594 494.253906 C 891.183594 494.253906 942.605469 671.175781 923.324219 680.824219 C 904.039062 690.476562 875.117188 717.820312 868.6875 701.734375 C 862.261719 685.652344 824.410156 272.46875 841.730469 254.691406 Z M 841.730469 254.691406 "/>
<path style=" stroke:none;fill-rule:nonzero;fill:rgb(100%,72.156863%,72.156863%);fill-opacity:1;" d="M 886.363281 511.945312 C 886.363281 511.945312 814.054688 481.386719 812.449219 508.726562 C 810.839844 536.070312 894.398438 555.371094 894.398438 547.328125 C 894.398438 539.289062 886.363281 511.945312 886.363281 511.945312 Z M 886.363281 511.945312 "/>
<path style=" stroke:none;fill-rule:nonzero;fill:rgb(100%,72.156863%,72.156863%);fill-opacity:1;" d="M 709.605469 500.6875 C 709.605469 500.6875 793.164062 563.414062 761.027344 579.496094 C 728.890625 595.582031 687.109375 523.203125 687.109375 523.203125 Z M 709.605469 500.6875 "/>
<path style=" stroke:none;fill-rule:nonzero;fill:rgb(18.431373%,18.039216%,25.490196%);fill-opacity:1;" d="M 826.167969 109.414062 C 826.707031 108.269531 827.890625 107.566406 829.152344 107.640625 C 803.40625 106.097656 776.285156 109.101562 754.742188 123.304688 C 748.710938 127.28125 743.078125 132.148438 736.207031 134.386719 L 741.785156 138.765625 L 735.121094 140.796875 L 744.925781 147.136719 C 742.910156 149.429688 739.820312 150.464844 736.832031 149.851562 C 741.09375 151.097656 744.230469 154.890625 745.824219 159.039062 C 747.417969 163.183594 747.703125 167.699219 747.972656 172.132812 C 749.617188 165.734375 756.59375 161.96875 763.183594 161.585938 C 769.773438 161.203125 776.199219 163.382812 782.613281 164.945312 C 796.582031 168.34375 811.089844 168.902344 825.273438 166.589844 C 820.457031 176.265625 824.523438 187.808594 828.609375 197.816406 L 836.777344 217.796875 C 841.308594 218.253906 844.515625 213.742188 847.929688 210.722656 C 851.042969 207.972656 838.648438 232.167969 840.566406 231.28125 C 843.0625 230.128906 869.367188 201.058594 870.597656 198.601562 C 876.21875 187.398438 879.589844 174.898438 879.082031 162.371094 C 878.574219 149.84375 873.996094 137.3125 865.371094 128.222656 C 859.511719 122.050781 851.410156 120.96875 845.4375 115.839844 C 843.089844 113.820312 843.082031 112.242188 839.851562 111.066406 C 838.777344 110.675781 826.34375 109.019531 826.167969 109.414062 Z M 826.167969 109.414062 "/>
<path style=" stroke:none;fill-rule:nonzero;fill:rgb(24.705882%,23.921569%,33.72549%);fill-opacity:1;" d="M 675.863281 288.378906 L 664.613281 283.554688 L 574.628906 431.523438 C 574.628906 431.523438 558.5625 470.125 587.484375 487.820312 C 616.410156 505.511719 683.898438 558.589844 683.898438 558.589844 L 722.460938 499.078125 C 722.460938 499.078125 643.726562 462.085938 648.546875 447.609375 C 653.367188 433.132812 679.078125 394.53125 679.078125 394.53125 Z M 675.863281 288.378906 "/>
<path style=" stroke:none;fill-rule:nonzero;fill:rgb(24.705882%,23.921569%,33.72549%);fill-opacity:1;" d="M 908.859375 296.421875 L 929.75 299.636719 C 929.75 299.636719 1016.519531 470.125 995.632812 502.292969 C 974.742188 534.460938 889.578125 579.496094 889.578125 579.496094 C 889.578125 579.496094 887.972656 526.421875 873.507812 507.121094 L 923.324219 487.820312 L 896.003906 381.664062 Z M 908.859375 296.421875 "/>
</g>
</svg>
